<svg version="1.1" id="Layer_1" xmlns="http://www.w3.org/2000/svg" xmlns:xlink="http://www.w3.org/1999/xlink" x="0px" y="0px"
	 width="100%" viewBox="0 0 110 118" enable-background="new 0 0 110 118" xml:space="preserve">
<path fill="#F8F6F3" opacity="1.000000" stroke="none" 
	d="
M1.000000,37.000000 
	C1.000000,25.028288 1.000000,13.056577 1.000000,1.042433 
	C37.551899,1.042433 74.103859,1.042433 111.000000,1.042433 
	C111.000000,14.018872 111.000000,27.040777 110.648590,40.489502 
	C109.104477,39.417095 107.793159,37.996075 106.742844,36.402973 
	C104.279343,32.666389 102.397728,28.446129 99.480476,25.124311 
	C72.313171,-5.810561 23.885544,-0.346125 4.468446,33.917377 
	C3.746648,35.191067 2.175394,35.983364 1.000000,37.000000 
z"/>
<path fill="#F5F4F3" opacity="1.000000" stroke="none" 
	d="
M111.000000,56.000000 
	C111.000000,60.356899 111.000000,64.713799 110.636833,69.610550 
	C109.744072,71.279030 109.007484,72.356750 108.715508,73.543816 
	C103.057831,96.545258 88.875046,110.992462 65.785744,116.652626 
	C64.414429,116.988800 63.256973,118.197380 62.000000,119.000000 
	C57.643101,119.000000 53.286201,119.000000 48.389450,118.636841 
	C43.078182,116.597725 38.185066,115.202087 33.558075,113.193436 
	C19.492451,107.087318 9.656786,96.800156 3.940876,82.531990 
	C3.398891,81.179070 2.000693,80.169159 1.000000,79.000000 
	C1.000000,75.969406 1.000000,72.938812 1.368994,69.533722 
	C2.506911,71.567596 3.105846,74.047234 4.079481,76.369797 
	C6.230266,81.500404 6.364070,87.752464 12.000217,91.249847 
	C12.000319,91.499695 12.000319,91.999390 12.037419,92.338455 
	C13.049692,93.451683 14.024865,94.225845 15.000166,95.249847 
	C15.000295,95.499695 15.000313,95.999390 15.037273,96.343369 
	C17.382950,98.791466 19.691666,100.895584 22.313345,103.138870 
	C34.497040,111.722008 47.267399,116.551140 62.203785,114.037979 
	C86.657310,109.923492 104.911522,89.476089 105.939384,64.985146 
	C106.605957,49.102715 100.387573,36.036774 88.785553,25.197096 
	C75.246437,12.547595 54.923271,8.875449 37.792507,15.043367 
	C29.575603,18.001856 23.220295,23.366961 17.008884,29.252073 
	C10.351756,35.559483 6.353062,43.017963 4.642813,52.072174 
	C3.190430,53.762901 2.095215,55.381451 1.000000,57.000000 
	C1.000000,53.969406 1.000000,50.938812 1.349533,47.393700 
	C2.397130,46.005318 3.372679,45.236671 3.750152,44.241234 
	C7.351301,34.744614 12.966851,26.873600 20.949968,20.413441 
	C34.423176,9.510550 49.855297,6.330265 66.196045,9.787486 
	C88.671272,14.542583 102.675537,28.856104 108.298134,51.263798 
	C108.724152,52.961620 110.077644,54.426720 111.000000,56.000000 
z"/>
<path fill="#F7F5F3" opacity="1.000000" stroke="none" 
	d="
M111.000000,55.533882 
	C110.077644,54.426720 108.724152,52.961620 108.298134,51.263798 
	C102.675537,28.856104 88.671272,14.542583 66.196045,9.787486 
	C49.855297,6.330265 34.423176,9.510550 20.949968,20.413441 
	C12.966851,26.873600 7.351301,34.744614 3.750152,44.241234 
	C3.372679,45.236671 2.397130,46.005318 1.349533,46.939590 
	C1.000000,43.969406 1.000000,40.938812 1.000000,37.454109 
	C2.175394,35.983364 3.746648,35.191067 4.468446,33.917377 
	C23.885544,-0.346125 72.313171,-5.810561 99.480476,25.124311 
	C102.397728,28.446129 104.279343,32.666389 106.742844,36.402973 
	C107.793159,37.996075 109.104477,39.417095 110.648590,40.958160 
	C111.000000,45.689255 111.000000,50.378513 111.000000,55.533882 
z"/>
<path fill="#F8F6F3" opacity="1.000000" stroke="none" 
	d="
M111.000000,86.000000 
	C111.000000,96.926559 111.000000,107.853111 111.000000,119.000000 
	C100.313446,119.000000 89.625381,119.000000 78.525116,118.656631 
	C78.972092,117.589790 79.727516,116.654633 80.706184,116.175018 
	C92.904617,110.197090 101.983070,101.133049 108.068802,88.990547 
	C108.664268,87.802437 110.005127,86.987923 111.000000,86.000000 
z"/>
<path fill="#F7F6F3" opacity="1.000000" stroke="none" 
	d="
M34.000000,119.000000 
	C23.075756,119.000000 12.151510,119.000000 1.000000,119.000000 
	C1.000000,108.980247 1.000000,98.958786 1.340871,88.523743 
	C2.248577,88.675529 2.994114,89.145203 3.355680,89.820473 
	C9.678724,101.629601 18.981733,110.252556 31.007492,116.070702 
	C32.198601,116.646965 33.011539,118.004875 34.000000,119.000000 
z"/>
<path fill="#F7F5F3" opacity="1.000000" stroke="none" 
	d="
M111.000000,85.533142 
	C110.005127,86.987923 108.664268,87.802437 108.068802,88.990547 
	C101.983070,101.133049 92.904617,110.197090 80.706184,116.175018 
	C79.727516,116.654633 78.972092,117.589790 78.056458,118.656631 
	C72.977905,119.000000 67.955818,119.000000 62.466866,119.000000 
	C63.256973,118.197380 64.414429,116.988800 65.785744,116.652626 
	C88.875046,110.992462 103.057831,96.545258 108.715508,73.543816 
	C109.007484,72.356750 109.744072,71.279030 110.636833,70.075203 
	C111.000000,75.022095 111.000000,80.044182 111.000000,85.533142 
z"/>
<path fill="#F7F5F3" opacity="1.000000" stroke="none" 
	d="
M34.464653,119.000000 
	C33.011539,118.004875 32.198601,116.646965 31.007492,116.070702 
	C18.981733,110.252556 9.678724,101.629601 3.355680,89.820473 
	C2.994114,89.145203 2.248577,88.675529 1.340871,88.055084 
	C1.000000,85.299988 1.000000,82.599968 1.000000,79.449982 
	C2.000693,80.169159 3.398891,81.179070 3.940876,82.531990 
	C9.656786,96.800156 19.492451,107.087318 33.558075,113.193436 
	C38.185066,115.202087 43.078182,116.597725 47.924801,118.636841 
	C43.643101,119.000000 39.286201,119.000000 34.464653,119.000000 
z"/>
<path fill="#F4F3F3" opacity="1.000000" stroke="none" 
	d="
M1.000000,57.460636 
	C2.095215,55.381451 3.190430,53.762901 4.642872,52.516144 
	C5.347138,60.709824 5.058129,68.631691 6.266291,76.318222 
	C7.063045,81.387329 10.013815,86.117867 12.000114,91.000000 
	C6.364070,87.752464 6.230266,81.500404 4.079481,76.369797 
	C3.105846,74.047234 2.506911,71.567596 1.368994,69.079605 
	C1.000000,65.307091 1.000000,61.614182 1.000000,57.460636 
z"/>
<path fill="#F0F1F2" opacity="1.000000" stroke="none" 
	d="
M12.000217,91.249847 
	C10.013815,86.117867 7.063045,81.387329 6.266291,76.318222 
	C5.058129,68.631691 5.347138,60.709824 5.000040,52.443970 
	C6.353062,43.017963 10.351756,35.559483 17.008884,29.252073 
	C23.220295,23.366961 29.575603,18.001856 37.792507,15.043367 
	C54.923271,8.875449 75.246437,12.547595 88.785553,25.197096 
	C100.387573,36.036774 106.605957,49.102715 105.939384,64.985146 
	C104.911522,89.476089 86.657310,109.923492 62.203785,114.037979 
	C47.267399,116.551140 34.497040,111.722008 22.276154,102.794998 
	C19.617434,100.207764 17.308874,98.103577 15.000313,95.999390 
	C15.000313,95.999390 15.000295,95.499695 14.962946,94.910851 
	C13.950505,93.547798 12.975412,92.773598 12.000319,91.999390 
	C12.000319,91.999390 12.000319,91.499695 12.000217,91.249847 
M96.640656,44.403160 
	C87.855568,22.770483 67.369675,11.258892 45.340759,16.112673 
	C29.322828,19.642012 19.058474,30.100145 12.266846,45.129166 
	C7.419698,52.332569 6.939857,60.125984 7.790185,68.636703 
	C10.321804,93.975021 35.177391,114.213158 62.225170,110.084854 
	C91.289116,105.648827 109.978798,74.573738 99.949501,48.552788 
	C99.426224,47.195152 98.023972,46.176308 96.640656,44.403160 
z"/>
<path fill="#F4F3F3" opacity="1.000000" stroke="none" 
	d="
M15.037273,96.343369 
	C17.308874,98.103577 19.617434,100.207764 21.963188,102.655823 
	C19.691666,100.895584 17.382950,98.791466 15.037273,96.343369 
z"/>
<path fill="#F4F3F3" opacity="1.000000" stroke="none" 
	d="
M12.037419,92.338455 
	C12.975412,92.773598 13.950505,93.547798 14.962818,94.661003 
	C14.024865,94.225845 13.049692,93.451683 12.037419,92.338455 
z"/>
<path fill="#5082EE" opacity="1.000000" stroke="none" 
	d="
M12.969049,44.999840 
	C19.058474,30.100145 29.322828,19.642012 45.340759,16.112673 
	C67.369675,11.258892 87.855568,22.770483 96.834991,45.103622 
	C101.476448,60.961082 98.469810,74.681763 88.765312,87.309792 
	C76.899902,100.105392 62.768021,105.280235 45.777390,101.999527 
	C35.719872,100.057526 27.928082,94.275810 20.811123,86.850098 
	C10.804285,74.044586 8.970304,60.063736 12.969049,44.999840 
M39.854977,69.245895 
	C40.221378,75.725632 40.609848,76.124847 46.795628,76.141602 
	C52.791744,76.157837 58.788288,76.105148 64.783989,76.157478 
	C68.185631,76.187172 70.150208,74.871033 70.135010,71.212212 
	C70.101822,63.217594 70.150223,55.222656 70.122925,47.227993 
	C70.110741,43.659039 68.632118,41.694553 64.674911,41.807846 
	C58.350815,41.988899 52.014664,41.975510 45.689491,41.814072 
	C41.376564,41.703991 39.722706,43.612396 39.816200,47.814846 
	C39.968048,54.640419 39.855457,61.471870 39.854977,69.245895 
M39.427681,82.921448 
	C40.880337,82.837776 42.332989,82.754112 43.666080,82.677330 
	C45.784492,76.351562 39.840916,79.379707 38.227680,77.495041 
	C37.980091,75.717880 37.736393,73.968674 37.499344,72.267174 
	C32.591919,72.171623 32.009678,73.843903 33.770958,82.691139 
	C35.289394,82.764870 36.901665,82.843147 39.427681,82.921448 
M76.919800,77.495461 
	C76.864136,71.811508 76.864136,71.811508 72.377319,72.677696 
	C72.141914,74.396553 71.902412,76.145355 71.679428,77.773552 
	C69.259483,78.873634 64.182076,76.973839 66.481415,82.582932 
	C69.928169,82.582932 73.160011,82.582932 76.615616,82.582932 
	C76.732285,80.979866 76.825928,79.693199 76.919800,77.495461 
M71.868805,40.707085 
	C72.325081,46.368057 72.325081,46.368057 76.526703,45.205872 
	C76.526703,41.940735 76.526703,38.715668 76.526703,35.336411 
	C72.877754,35.336411 69.625206,35.336411 66.363312,35.336411 
	C64.419487,41.063915 69.084755,39.188419 71.868805,40.707085 
M38.125713,40.718353 
	C39.168026,40.388000 40.304874,40.220505 41.227924,39.684696 
	C42.301304,39.061626 43.187363,38.115864 44.154716,37.310146 
	C43.145805,36.568325 42.200233,35.322308 41.115253,35.186008 
	C38.586582,34.868351 35.990829,35.084682 33.394562,35.084682 
	C33.394562,39.184219 33.394562,42.427689 33.394562,45.551544 
	C37.852104,47.154408 38.108871,44.581802 38.125713,40.718353 
z"/>
<path fill="#ECEDF3" opacity="1.000000" stroke="none" 
	d="
M89.058563,87.168289 
	C98.469810,74.681763 101.476448,60.961082 97.030136,45.401909 
	C98.023972,46.176308 99.426224,47.195152 99.949501,48.552788 
	C109.978798,74.573738 91.289116,105.648827 62.225170,110.084854 
	C35.177391,114.213158 10.321804,93.975021 7.790185,68.636703 
	C6.939857,60.125984 7.419698,52.332569 12.617948,45.064503 
	C8.970304,60.063736 10.804285,74.044586 20.832809,87.201653 
	C21.470837,88.891235 21.779026,90.054924 22.469475,90.909904 
	C35.438812,106.969818 56.564323,110.176682 73.841263,101.983932 
	C80.464417,98.843216 86.244812,94.422737 89.058563,87.168289 
z"/>
<path fill="#FCFDFF" opacity="1.000000" stroke="none" 
	d="
M39.854733,68.773369 
	C39.855457,61.471870 39.968048,54.640419 39.816200,47.814846 
	C39.722706,43.612396 41.376564,41.703991 45.689491,41.814072 
	C52.014664,41.975510 58.350815,41.988899 64.674911,41.807846 
	C68.632118,41.694553 70.110741,43.659039 70.122925,47.227993 
	C70.150223,55.222656 70.101822,63.217594 70.135010,71.212212 
	C70.150208,74.871033 68.185631,76.187172 64.783989,76.157478 
	C58.788288,76.105148 52.791744,76.157837 46.795628,76.141602 
	C40.609848,76.124847 40.221378,75.725632 39.854733,68.773369 
M58.089733,63.066612 
	C54.992920,63.066612 51.896103,63.066612 48.847424,63.066612 
	C48.429646,68.323097 52.230621,69.426079 62.814533,66.907059 
	C61.185390,65.284309 60.077599,64.180870 58.089733,63.066612 
M56.393414,54.935223 
	C58.001369,54.935223 59.609325,54.935223 61.175217,54.935223 
	C61.546021,49.683418 57.659397,48.565693 48.571674,50.776058 
	C48.712761,54.929985 48.712761,54.929985 56.393414,54.935223 
M48.741898,58.525990 
	C48.787800,59.012772 48.800777,59.919468 48.884335,59.926022 
	C52.784679,60.231842 56.690281,60.491180 60.599617,60.599983 
	C60.790966,60.605309 61.390305,59.039646 61.142555,58.517014 
	C60.811283,57.818180 59.828777,56.964352 59.140522,56.976906 
	C55.751740,57.038723 52.367775,57.365055 48.741898,58.525990 
z"/>
<path fill="#E3E8F3" opacity="1.000000" stroke="none" 
	d="
M88.765312,87.309792 
	C86.244812,94.422737 80.464417,98.843216 73.841263,101.983932 
	C56.564323,110.176682 35.438812,106.969818 22.469475,90.909904 
	C21.779026,90.054924 21.470837,88.891235 20.963009,87.519707 
	C27.928082,94.275810 35.719872,100.057526 45.777390,101.999527 
	C62.768021,105.280235 76.899902,100.105392 88.765312,87.309792 
z"/>
<path fill="#EAF0FD" opacity="1.000000" stroke="none" 
	d="
M38.970806,82.921440 
	C36.901665,82.843147 35.289394,82.764870 33.770958,82.691139 
	C32.009678,73.843903 32.591919,72.171623 37.499344,72.267174 
	C37.736393,73.968674 37.980091,75.717880 38.227680,77.495041 
	C39.840916,79.379707 45.784492,76.351562 43.666080,82.677330 
	C42.332989,82.754112 40.880337,82.837776 38.970806,82.921440 
z"/>
<path fill="#EAF0FD" opacity="1.000000" stroke="none" 
	d="
M76.919678,77.950989 
	C76.825928,79.693199 76.732285,80.979866 76.615616,82.582932 
	C73.160011,82.582932 69.928169,82.582932 66.481415,82.582932 
	C64.182076,76.973839 69.259483,78.873634 71.679428,77.773552 
	C71.902412,76.145355 72.141914,74.396553 72.377319,72.677696 
	C76.864136,71.811508 76.864136,71.811508 76.919678,77.950989 
z"/>
<path fill="#EAF0FD" opacity="1.000000" stroke="none" 
	d="
M71.583733,40.369835 
	C69.084755,39.188419 64.419487,41.063915 66.363312,35.336411 
	C69.625206,35.336411 72.877754,35.336411 76.526703,35.336411 
	C76.526703,38.715668 76.526703,41.940735 76.526703,45.205872 
	C72.325081,46.368057 72.325081,46.368057 71.583733,40.369835 
z"/>
<path fill="#EAF0FD" opacity="1.000000" stroke="none" 
	d="
M38.045959,41.155067 
	C38.108871,44.581802 37.852104,47.154408 33.394562,45.551544 
	C33.394562,42.427689 33.394562,39.184219 33.394562,35.084682 
	C35.990829,35.084682 38.586582,34.868351 41.115253,35.186008 
	C42.200233,35.322308 43.145805,36.568325 44.154716,37.310146 
	C43.187363,38.115864 42.301304,39.061626 41.227924,39.684696 
	C40.304874,40.220505 39.168026,40.388000 38.045959,41.155067 
z"/>
<path fill="#6893F0" opacity="1.000000" stroke="none" 
	d="
M58.529770,63.072021 
	C60.077599,64.180870 61.185390,65.284309 62.814533,66.907059 
	C52.230621,69.426079 48.429646,68.323097 48.847424,63.066612 
	C51.896103,63.066612 54.992920,63.066612 58.529770,63.072021 
z"/>
<path fill="#6893F0" opacity="1.000000" stroke="none" 
	d="
M55.942848,54.935188 
	C48.712761,54.929985 48.712761,54.929985 48.571674,50.776058 
	C57.659397,48.565693 61.546021,49.683418 61.175217,54.935223 
	C59.609325,54.935223 58.001369,54.935223 55.942848,54.935188 
z"/>
<path fill="#4E80EE" opacity="1.000000" stroke="none" 
	d="
M48.862007,58.062004 
	C52.367775,57.365055 55.751740,57.038723 59.140522,56.976906 
	C59.828777,56.964352 60.811283,57.818180 61.142555,58.517014 
	C61.390305,59.039646 60.790966,60.605309 60.599617,60.599983 
	C56.690281,60.491180 52.784679,60.231842 48.884335,59.926022 
	C48.800777,59.919468 48.787800,59.012772 48.862007,58.062004 
z"/>
</svg>