<svg width="64" height="64" viewBox="0 0 64 64" fill="none" xmlns="http://www.w3.org/2000/svg">
  <!-- Blue background with rounded corners (matching Navigation style) -->
  <rect width="64" height="64" rx="12" fill="#3B82F6"/>
  
  <!-- DocumentScanner icon adapted for favicon -->
  <g transform="translate(16, 16) scale(1.33)">
    <!-- Document body -->
    <rect x="4" y="2" width="16" height="20" rx="2" fill="white" stroke="none"/>
    
    <!-- Document fold corner -->
    <path d="M16 2 L20 6 L20 2 Z" fill="#E5F3FF"/>
    
    <!-- Scanner lines -->
    <rect x="7" y="6" width="10" height="1.5" rx="0.75" fill="#3B82F6"/>
    <rect x="7" y="9" width="8" height="1.5" rx="0.75" fill="#3B82F6"/>
    <rect x="7" y="12" width="10" height="1.5" rx="0.75" fill="#3B82F6"/>
    <rect x="7" y="15" width="6" height="1.5" rx="0.75" fill="#3B82F6"/>
    
    <!-- Scanner beam effect -->
    <rect x="4" y="17" width="16" height="1" fill="#60A5FA" opacity="0.8"/>
    
    <!-- Corner scan indicators -->
    <rect x="4" y="2" width="3" height="3" fill="none" stroke="#60A5FA" stroke-width="1.5" rx="0.5"/>
    <rect x="17" y="2" width="3" height="3" fill="none" stroke="#60A5FA" stroke-width="1.5" rx="0.5"/>
    <rect x="4" y="19" width="3" height="3" fill="none" stroke="#60A5FA" stroke-width="1.5" rx="0.5"/>
    <rect x="17" y="19" width="3" height="3" fill="none" stroke="#60A5FA" stroke-width="1.5" rx="0.5"/>
  </g>
</svg>